<svg width="300" height="300" viewBox="0 0 300 300" fill="none" xmlns="http://www.w3.org/2000/svg">
<g clip-path="url(#clip0_27_2)">
<path d="M294.488 221.139L179.586 41.0986C173.107 30.9443 162.046 24.8817 150 24.8817C137.953 24.8817 126.892 30.9443 120.415 41.0986L5.5125 221.138C-1.38408 231.945 -1.8416 245.645 4.32237 256.892C10.4863 268.134 22.2796 275.118 35.0998 275.118H264.901C277.722 275.118 289.515 268.135 295.681 256.889C301.842 245.645 301.384 231.946 294.488 221.139ZM150 244.813C139.434 244.813 130.869 236.247 130.869 225.682C130.869 215.116 139.435 206.55 150 206.55C160.566 206.55 169.131 215.116 169.131 225.682C169.131 236.247 160.565 244.813 150 244.813ZM176.517 111.87L167.094 175.312C165.707 184.651 157.012 191.097 147.675 189.71C140.131 188.589 134.474 182.674 133.311 175.528L123.079 112.212C120.697 97.4701 130.716 83.5881 145.458 81.2059C160.2 78.8237 174.082 88.8428 176.464 103.585C176.912 106.361 176.896 109.227 176.517 111.87Z" fill="white"/>
</g>
<defs>
<clipPath id="clip0_27_2">
<rect width="300" height="300" fill="white"/>
</clipPath>
</defs>
</svg>
