<svg width="60" height="60" viewBox="0 0 60 60" fill="none" xmlns="http://www.w3.org/2000/svg">
<path d="M6.25 60C4.5929 59.9983 3.00415 59.3393 1.83241 58.1676C0.660665 56.9958 0.00165461 55.4071 0 53.75V6.25C0.00198482 4.59301 0.661099 3.00444 1.83277 1.83277C3.00444 0.661099 4.59301 0.00198482 6.25 0H53.75C55.407 0.00198482 56.9956 0.661099 58.1672 1.83277C59.3389 3.00444 59.998 4.59301 60 6.25V53.75C59.9983 55.4071 59.3393 56.9958 58.1676 58.1676C56.9958 59.3393 55.4071 59.9983 53.75 60H6.25ZM40 57.5H53.75C54.7446 57.5 55.6984 57.1049 56.4017 56.4016C57.1049 55.6984 57.5 54.7446 57.5 53.75V40H40V57.5ZM21.25 57.5H38.75V40H21.25V57.5ZM2.5 53.75C2.5 54.7446 2.89509 55.6984 3.59835 56.4016C4.30161 57.1049 5.25544 57.5 6.25 57.5H20V40H2.5V53.75ZM40 38.75H57.5V21.25H40V38.75ZM34.6338 38.75H38.75V34.635L34.6338 38.75ZM29.6338 38.75H33.75L33.3088 38.3088L38.3088 33.3088L38.75 33.75V29.6338L29.6338 38.75ZM24.6338 38.75H28.75L28.3075 38.3088L38.3075 28.3088L38.75 28.75V24.6338L24.6338 38.75ZM21.25 38.75H23.75L23.3088 38.3088L38.3088 23.3088L38.75 23.75V21.25H38.3875C38.5097 20.8407 38.6012 20.4229 38.6613 20H38.75V2.5H21.25V20H21.3387C21.3996 20.4228 21.4911 20.8405 21.6125 21.25H21.25V25.365L22.8387 23.7775C23.0799 24.1205 23.3452 24.4459 23.6325 24.7512L21.6925 26.6925L21.25 26.25V30.3662L25.4137 26.2025C25.7862 26.4327 26.1756 26.6341 26.5788 26.805L21.6912 31.6925L21.25 31.25V35.365L28.8412 27.7737L27.7813 24.5925C26.4145 24.0735 25.273 23.0918 24.5552 21.8182C23.8374 20.5446 23.5888 19.0596 23.8526 17.6217C24.1164 16.1837 24.876 14.8838 25.9992 13.9479C27.1224 13.0121 28.538 12.4996 30 12.4996C31.462 12.4996 32.8776 13.0121 34.0008 13.9479C35.124 14.8838 35.8836 16.1837 36.1474 17.6217C36.4112 19.0596 36.1626 20.5446 35.4448 21.8182C34.727 23.0918 33.5855 24.0735 32.2187 24.5925L30 31.25L29.2838 29.1L21.6925 36.6912L21.25 36.25V38.75ZM2.5 38.75H20V21.25H2.5V38.75ZM26.25 18.75C26.25 19.4917 26.4699 20.2167 26.882 20.8334C27.294 21.4501 27.8797 21.9307 28.5649 22.2145C29.2502 22.4984 30.0042 22.5726 30.7316 22.4279C31.459 22.2832 32.1272 21.9261 32.6517 21.4016C33.1761 20.8772 33.5332 20.209 33.6779 19.4816C33.8226 18.7542 33.7484 18.0002 33.4645 17.3149C33.1807 16.6297 32.7001 16.044 32.0834 15.632C31.4667 15.2199 30.7417 15 30 15C29.0054 15 28.0516 15.3951 27.3483 16.0984C26.6451 16.8016 26.25 17.7554 26.25 18.75ZM40 20H57.5V6.25C57.5 5.25544 57.1049 4.30163 56.4017 3.59837C55.6984 2.8951 54.7446 2.5 53.75 2.5H40V20ZM2.5 6.25V20H20V2.5H6.25C5.25544 2.5 4.30161 2.8951 3.59835 3.59837C2.89509 4.30163 2.5 5.25544 2.5 6.25Z" fill="white"/>
</svg>
