<svg width="95" height="54" viewBox="0 0 95 54" fill="none" xmlns="http://www.w3.org/2000/svg">
<g clip-path="url(#clip0_110_2)">
<mask id="mask0_110_2" style="mask-type:luminance" maskUnits="userSpaceOnUse" x="0" y="0" width="80" height="54">
<path d="M80 0H0V54H80V0Z" fill="white"/>
</mask>
<g mask="url(#mask0_110_2)">
<path d="M69.6109 24.5628C70.0482 23.0448 70.1852 21.4774 70.1852 19.9371C70.1852 9.49507 61.6902 1 51.2483 1C47.1281 1 43.2109 2.3009 39.9205 4.76241C36.7406 7.14076 34.3426 10.5291 33.1677 14.3042C33.1288 14.4291 32.995 14.7165 32.4539 14.6267C32.4062 14.6187 32.356 14.62 32.305 14.6166C32.1271 14.6052 31.9342 14.5954 31.735 14.5954C25.5422 14.5954 20.0175 18.6001 17.9 24.5901C17.8685 24.6792 17.772 24.8891 17.5164 24.8395C17.4904 24.8345 17.4645 24.8289 17.4385 24.8238C16.5 24.6356 15.5377 24.5405 14.5782 24.5405C6.53956 24.5405 0 31.0803 0 39.1189C0 47.1573 6.53956 53.697 14.5778 53.697H65.4218C73.4604 53.697 80.0002 47.1573 80.0002 39.1189C80.0002 32.8159 75.8744 27.1788 69.9106 25.2492C69.7636 25.2018 69.456 25.1002 69.6109 24.5628ZM65.4218 50.9853H14.5778C8.03498 50.9853 2.71171 45.6622 2.71171 39.1189C2.71171 32.5757 8.0348 27.2522 14.5778 27.2522C15.3806 27.2522 16.1853 27.3341 16.969 27.4956C17.225 27.5484 17.4822 27.5749 17.7331 27.5749C19.0028 27.5749 19.9924 26.88 20.3803 25.7161C22.0562 20.6865 26.6191 17.3071 31.7348 17.3071C31.8997 17.3071 32.0799 17.3192 32.2708 17.3323C32.4785 17.3464 32.6937 17.3608 32.9241 17.363L32.9721 17.3632C34.5434 17.3632 35.4741 16.6399 35.7376 15.2133C35.7451 15.1728 35.751 15.134 35.757 15.1094C37.879 8.29197 44.1045 3.71171 51.2483 3.71171C60.1949 3.71171 67.4735 10.9905 67.4735 19.9371C67.4735 21.4725 67.2486 23.0259 66.8052 24.5541C66.5893 25.2984 66.6381 25.9602 66.9507 26.5215C67.4153 27.3558 68.2509 27.589 68.6526 27.7011L68.7162 27.719C73.7636 29.1743 77.2887 33.8619 77.2887 39.1189C77.2883 45.662 71.965 50.9853 65.4218 50.9853Z" fill="white"/>
<path d="M65.4218 50.9853H14.5778C8.03498 50.9853 2.71171 45.6622 2.71171 39.1189C2.71171 32.5757 8.0348 27.2522 14.5778 27.2522C15.3806 27.2522 16.1853 27.3341 16.969 27.4956C17.225 27.5484 17.4822 27.5749 17.7331 27.5749C19.0028 27.5749 19.9924 26.88 20.3803 25.7161C22.0562 20.6865 26.6191 17.3071 31.7348 17.3071C31.8997 17.3071 32.0799 17.3192 32.2708 17.3323C32.4785 17.3464 32.6937 17.3608 32.9241 17.363L32.9721 17.3632C34.5434 17.3632 35.4741 16.6399 35.7376 15.2133C35.7451 15.1728 35.751 15.134 35.757 15.1094C37.879 8.29197 44.1045 3.71171 51.2483 3.71171C60.1949 3.71171 67.4735 10.9905 67.4735 19.9371C67.4735 21.4725 67.2486 23.0259 66.8052 24.5541C66.5893 25.2984 66.6381 25.9602 66.9507 26.5215C67.4153 27.3558 68.2509 27.589 68.6526 27.7011L68.7162 27.719C73.7636 29.1743 77.2887 33.8619 77.2887 39.1189C77.2883 45.662 71.965 50.9853 65.4218 50.9853Z" fill="white"/>
<path d="M34.2334 27.7104C33.4557 27.4595 32.5536 27.3215 31.6931 27.3215C27.6109 27.3215 24.7598 30.1413 24.7598 34.1787C24.7598 38.1293 27.3531 40.7834 31.2127 40.7834C32.7506 40.7834 33.8679 40.4506 34.397 40.2519C34.5778 40.1841 35.0578 40.0037 34.9898 39.2576L34.805 38.43C34.7228 38.0483 34.4697 37.8206 34.1287 37.8206C33.9799 37.8206 33.8458 37.8654 33.7579 37.8992C33.3192 38.0673 32.6199 38.2909 31.617 38.2909C29.2934 38.2909 27.7323 36.5978 27.7323 34.0775C27.7323 31.4874 29.2871 29.8138 31.6929 29.8138C32.4531 29.8138 33.1218 29.9269 33.6802 30.1502L33.7091 30.162C33.7974 30.1987 33.9306 30.254 34.0873 30.254C34.2723 30.254 34.6062 30.1746 34.7622 29.6444L35.0118 28.7962L35.0212 28.7557C35.1004 28.3006 34.7909 27.8903 34.2334 27.7104Z" fill="#87502F"/>
<path d="M43.078 27.2711C39.2938 27.2711 36.6504 30.0909 36.6504 34.1285C36.6504 38.0469 39.2104 40.7836 42.8759 40.7836C45.9837 40.7836 49.3287 38.6377 49.3287 33.9262C49.3287 30.0076 46.7584 27.2711 43.078 27.2711ZM42.9772 38.392C41.0338 38.392 39.6231 36.5669 39.6231 34.0524C39.6231 31.8671 40.6758 29.6621 43.0276 29.6621C45.6404 29.6621 46.331 32.5009 46.331 34.0019C46.3308 36.5457 44.9206 38.392 42.9772 38.392Z" fill="#87502F"/>
<path d="M59.0595 38.6081H56.3834C55.9089 38.6081 56.1435 38.377 56.2603 38.2628C58.3555 36.2151 59.9079 34.4176 59.9079 32.201C59.9079 30.2925 58.6687 28.3668 55.8996 28.3668C54.8155 28.3668 53.7709 28.672 52.879 29.2492C52.3236 29.6088 52.1144 30.1356 52.3424 30.5958L52.5662 31.0915L52.5823 31.1241C52.7154 31.3732 52.9601 31.5218 53.2369 31.5218C53.5267 31.5218 53.7671 31.3656 53.9295 31.26C54.4776 30.9035 55.035 30.7229 55.5862 30.7229C56.733 30.7229 57.2906 31.2691 57.2906 32.3872C57.2757 33.8485 56.0884 35.2137 53.2544 37.9117C53.1207 38.0267 52.339 38.7037 51.9904 39.1453C51.8104 39.3737 51.8147 39.6649 51.8185 39.9218L51.8196 40.0245C51.8196 40.6415 52.3469 40.9642 52.8679 40.9642H59.0485C59.0879 40.9683 59.145 40.9728 59.2123 40.9728C59.8853 40.9728 60.1867 40.5426 60.1867 40.1161V39.5738C60.1868 38.9465 59.6223 38.6131 59.0595 38.6081Z" fill="#87502F"/>
</g>
<mask id="mask1_110_2" style="mask-type:luminance" maskUnits="userSpaceOnUse" x="65" y="24" width="30" height="30">
<path d="M65 54H95V24H65V54Z" fill="white"/>
</mask>
<g mask="url(#mask1_110_2)">
<path fill-rule="evenodd" clip-rule="evenodd" d="M73.8734 38.175L79.1759 32.8687C79.4009 32.6437 79.7084 32.5781 80 32.6343C80.2916 32.5781 80.5991 32.6437 80.8241 32.8687L86.1266 38.175C86.4931 38.5406 86.4931 39.1313 86.1266 39.5063C85.7609 39.8719 85.1675 39.8719 84.8009 39.5063L80.9375 35.6344V45.5625C80.9375 46.0781 80.5175 46.5 80 46.5C79.4816 46.5 79.0625 46.0781 79.0625 45.5625V35.6344L75.1991 39.5063C74.8325 39.8719 74.2381 39.8719 73.8734 39.5063C73.5069 39.1313 73.5069 38.5406 73.8734 38.175ZM80 54C88.2847 54 95 47.2875 95 39C95 30.7125 88.2847 24 80 24C71.7153 24 65 30.7125 65 39C65 47.2875 71.7153 54 80 54Z" fill="#FF0000"/>
<path d="M73.8735 38.175L79.176 32.8687C79.401 32.6437 79.7085 32.5781 80.0001 32.6343C80.2917 32.5781 80.5992 32.6437 80.8242 32.8687L86.1267 38.175C86.4932 38.5406 86.4932 39.1313 86.1267 39.5063C85.761 39.8719 85.1676 39.8719 84.801 39.5063L80.9376 35.6344V45.5625C80.9376 46.0781 80.5176 46.5 80.0001 46.5C79.4817 46.5 79.0626 46.0781 79.0626 45.5625V35.6344L75.1992 39.5063C74.8326 39.8719 74.2382 39.8719 73.8735 39.5063C73.507 39.1313 73.507 38.5406 73.8735 38.175Z" fill="white"/>
</g>
</g>
<defs>
<clipPath id="clip0_110_2">
<rect width="95" height="54" fill="white"/>
</clipPath>
</defs>
</svg>
