<svg width="95" height="54" viewBox="0 0 95 54" fill="none" xmlns="http://www.w3.org/2000/svg">
<g clip-path="url(#clip0_110_28)">
<mask id="mask0_110_28" style="mask-type:luminance" maskUnits="userSpaceOnUse" x="0" y="0" width="80" height="54">
<path d="M80 0H0V54H80V0Z" fill="white"/>
</mask>
<g mask="url(#mask0_110_28)">
<path d="M69.6109 24.2143C70.0482 22.6963 70.1852 21.1289 70.1852 19.5886C70.1852 9.14656 61.6902 0.651489 51.2483 0.651489C47.1281 0.651489 43.2109 1.95239 39.9205 4.4139C36.7406 6.79225 34.3426 10.1806 33.1677 13.9557C33.1288 14.0806 32.995 14.368 32.4539 14.2782C32.4062 14.2702 32.356 14.2715 32.305 14.2681C32.1271 14.2567 31.9342 14.2469 31.735 14.2469C25.5422 14.2469 20.0175 18.2516 17.9 24.2416C17.8685 24.3307 17.772 24.5406 17.5164 24.491C17.4904 24.486 17.4645 24.4804 17.4385 24.4753C16.5 24.2871 15.5377 24.192 14.5782 24.192C6.53956 24.192 0 30.7318 0 38.7704C0 46.8088 6.53956 53.3485 14.5778 53.3485H65.4218C73.4604 53.3485 80.0002 46.8088 80.0002 38.7704C80.0002 32.4674 75.8744 26.8303 69.9106 24.9007C69.7636 24.8533 69.456 24.7517 69.6109 24.2143ZM65.4218 50.6368H14.5778C8.03498 50.6368 2.71171 45.3137 2.71171 38.7704C2.71171 32.2272 8.0348 26.9037 14.5778 26.9037C15.3806 26.9037 16.1853 26.9856 16.969 27.1471C17.225 27.1999 17.4822 27.2264 17.7331 27.2264C19.0028 27.2264 19.9924 26.5315 20.3803 25.3676C22.0562 20.338 26.6191 16.9586 31.7348 16.9586C31.8997 16.9586 32.0799 16.9707 32.2708 16.9838C32.4785 16.9979 32.6937 17.0123 32.9241 17.0145L32.9721 17.0147C34.5434 17.0147 35.4741 16.2914 35.7376 14.8648C35.7451 14.8243 35.751 14.7855 35.757 14.7609C37.879 7.94346 44.1045 3.3632 51.2483 3.3632C60.1949 3.3632 67.4735 10.642 67.4735 19.5886C67.4735 21.124 67.2486 22.6774 66.8052 24.2056C66.5893 24.9499 66.6381 25.6117 66.9507 26.173C67.4153 27.0073 68.2509 27.2405 68.6526 27.3526L68.7162 27.3705C73.7636 28.8258 77.2887 33.5134 77.2887 38.7704C77.2883 45.3135 71.965 50.6368 65.4218 50.6368Z" fill="white"/>
<path d="M65.4218 50.6368H14.5778C8.03498 50.6368 2.71171 45.3137 2.71171 38.7704C2.71171 32.2272 8.0348 26.9037 14.5778 26.9037C15.3806 26.9037 16.1853 26.9856 16.969 27.1471C17.225 27.1999 17.4822 27.2264 17.7331 27.2264C19.0028 27.2264 19.9924 26.5315 20.3803 25.3676C22.0562 20.338 26.6191 16.9586 31.7348 16.9586C31.8997 16.9586 32.0799 16.9707 32.2708 16.9838C32.4785 16.9979 32.6937 17.0123 32.9241 17.0145L32.9721 17.0147C34.5434 17.0147 35.4741 16.2914 35.7376 14.8648C35.7451 14.8243 35.751 14.7855 35.757 14.7609C37.879 7.94346 44.1045 3.3632 51.2483 3.3632C60.1949 3.3632 67.4735 10.642 67.4735 19.5886C67.4735 21.124 67.2486 22.6774 66.8052 24.2056C66.5893 24.9499 66.6381 25.6117 66.9507 26.173C67.4153 27.0073 68.2509 27.2405 68.6526 27.3526L68.7162 27.3705C73.7636 28.8258 77.2887 33.5134 77.2887 38.7704C77.2883 45.3135 71.965 50.6368 65.4218 50.6368Z" fill="white"/>
<path d="M34.2334 27.7104C33.4557 27.4595 32.5536 27.3215 31.6931 27.3215C27.6109 27.3215 24.7598 30.1413 24.7598 34.1787C24.7598 38.1293 27.3531 40.7834 31.2127 40.7834C32.7506 40.7834 33.8679 40.4506 34.397 40.2519C34.5778 40.1841 35.0578 40.0037 34.9898 39.2576L34.805 38.43C34.7228 38.0483 34.4697 37.8206 34.1287 37.8206C33.9799 37.8206 33.8458 37.8654 33.7579 37.8992C33.3192 38.0673 32.6199 38.2909 31.617 38.2909C29.2934 38.2909 27.7323 36.5978 27.7323 34.0775C27.7323 31.4874 29.2871 29.8138 31.6929 29.8138C32.4531 29.8138 33.1218 29.9269 33.6802 30.1502L33.7091 30.162C33.7974 30.1987 33.9306 30.254 34.0873 30.254C34.2723 30.254 34.6062 30.1746 34.7622 29.6444L35.0118 28.7962L35.0212 28.7557C35.1004 28.3006 34.7909 27.8903 34.2334 27.7104Z" fill="#87502F"/>
<path d="M43.078 27.2711C39.2938 27.2711 36.6504 30.0909 36.6504 34.1285C36.6504 38.0469 39.2104 40.7836 42.8759 40.7836C45.9837 40.7836 49.3287 38.6377 49.3287 33.9262C49.3287 30.0076 46.7584 27.2711 43.078 27.2711ZM42.9772 38.392C41.0338 38.392 39.6231 36.5669 39.6231 34.0524C39.6231 31.8671 40.6758 29.6621 43.0276 29.6621C45.6404 29.6621 46.331 32.5009 46.331 34.0019C46.3308 36.5457 44.9206 38.392 42.9772 38.392Z" fill="#87502F"/>
<path d="M59.0595 38.6081H56.3834C55.9089 38.6081 56.1435 38.377 56.2603 38.2628C58.3555 36.2151 59.9079 34.4176 59.9079 32.201C59.9079 30.2925 58.6687 28.3668 55.8996 28.3668C54.8155 28.3668 53.7709 28.672 52.879 29.2492C52.3236 29.6088 52.1144 30.1356 52.3424 30.5958L52.5662 31.0915L52.5823 31.1241C52.7154 31.3732 52.9601 31.5218 53.2369 31.5218C53.5267 31.5218 53.7671 31.3656 53.9295 31.26C54.4776 30.9035 55.035 30.7229 55.5862 30.7229C56.733 30.7229 57.2906 31.2691 57.2906 32.3872C57.2757 33.8485 56.0884 35.2137 53.2544 37.9117C53.1207 38.0267 52.339 38.7037 51.9904 39.1453C51.8104 39.3737 51.8147 39.6649 51.8185 39.9218L51.8196 40.0245C51.8196 40.6415 52.3469 40.9642 52.8679 40.9642H59.0485C59.0879 40.9683 59.145 40.9728 59.2123 40.9728C59.8853 40.9728 60.1867 40.5426 60.1867 40.1161V39.5738C60.1868 38.9465 59.6223 38.6131 59.0595 38.6081Z" fill="#87502F"/>
</g>
<mask id="mask1_110_28" style="mask-type:luminance" maskUnits="userSpaceOnUse" x="65" y="24" width="30" height="30">
<path d="M95 24H65V54H95V24Z" fill="white"/>
</mask>
<g mask="url(#mask1_110_28)">
<path fill-rule="evenodd" clip-rule="evenodd" d="M86.1266 39.825L80.8241 45.1313C80.5991 45.3563 80.2916 45.4219 80 45.3657C79.7084 45.4219 79.4009 45.3563 79.1759 45.1313L73.8734 39.825C73.5069 39.4594 73.5069 38.8687 73.8734 38.4937C74.2391 38.1281 74.8325 38.1281 75.1991 38.4937L79.0625 42.3656V32.4375C79.0625 31.9219 79.4825 31.5 80 31.5C80.5184 31.5 80.9375 31.9219 80.9375 32.4375V42.3656L84.8009 38.4937C85.1675 38.1281 85.7619 38.1281 86.1266 38.4937C86.4931 38.8687 86.4931 39.4594 86.1266 39.825ZM80 24C71.7153 24 65 30.7125 65 39C65 47.2875 71.7153 54 80 54C88.2847 54 95 47.2875 95 39C95 30.7125 88.2847 24 80 24Z" fill="#E100FF"/>
<path d="M86.1267 39.825L80.8242 45.1313C80.5992 45.3563 80.2917 45.4219 80.0001 45.3657C79.7085 45.4219 79.401 45.3563 79.176 45.1313L73.8735 39.825C73.507 39.4594 73.507 38.8687 73.8735 38.4937C74.2392 38.1281 74.8326 38.1281 75.1992 38.4937L79.0626 42.3656V32.4375C79.0626 31.9219 79.4826 31.5 80.0001 31.5C80.5185 31.5 80.9376 31.9219 80.9376 32.4375V42.3656L84.801 38.4937C85.1676 38.1281 85.762 38.1281 86.1267 38.4937C86.4932 38.8687 86.4932 39.4594 86.1267 39.825Z" fill="white"/>
</g>
</g>
<defs>
<clipPath id="clip0_110_28">
<rect width="95" height="54" fill="white"/>
</clipPath>
</defs>
</svg>
