<svg width="101" height="88" viewBox="0 0 101 88" fill="none" xmlns="http://www.w3.org/2000/svg">
<path d="M88.895 3.08981H13.106C7.8091 3.08981 3.5005 7.39841 3.5005 12.6992V75.3012C3.5005 80.5981 7.8091 84.9106 13.106 84.9106H88.891C94.1879 84.9106 98.4965 80.602 98.4965 75.3012L98.5004 12.6992C98.5004 7.40231 94.1919 3.08981 88.895 3.08981ZM67.063 11.0625H83.598C85.1214 11.0625 86.3558 12.2969 86.3558 13.8203C86.3558 15.3398 85.1214 16.5781 83.598 16.5781H67.063C65.5435 16.5781 64.3091 15.3437 64.3091 13.8203C64.3091 12.3008 65.5435 11.0625 67.063 11.0625ZM37.786 10.418C39.6649 10.418 41.1883 11.9414 41.1883 13.8203C41.1883 15.6992 39.6649 17.2226 37.786 17.2226C35.9071 17.2226 34.3876 15.6992 34.3876 13.8203C34.3876 11.9414 35.911 10.418 37.786 10.418ZM27.743 10.418C29.6219 10.418 31.1453 11.9414 31.1453 13.8203C31.1453 15.6992 29.6219 17.2226 27.743 17.2226C25.8641 17.2226 24.3407 15.6992 24.3407 13.8203C24.3407 11.9414 25.8641 10.418 27.743 10.418ZM17.7 10.418C19.5789 10.418 21.1023 11.9414 21.1023 13.8203C21.1023 15.6992 19.5789 17.2226 17.7 17.2226C15.8211 17.2226 14.2977 15.6992 14.2977 13.8203C14.2977 11.9414 15.8211 10.418 17.7 10.418ZM92.54 75.301C92.54 77.3088 90.9033 78.9455 88.8955 78.9455H13.1065C11.0987 78.9455 9.462 77.3088 9.462 75.301V24.586H92.536V75.301H92.54Z" fill="white"/>
<path d="M56.762 50.23H60.9847C61.8441 50.23 62.5433 51.0894 62.5433 51.7886V63.0816C62.5433 63.941 61.848 64.6402 60.9847 64.6402H56.762C55.9026 64.6402 55.2034 63.7808 55.2034 63.0816V51.7886C55.2034 50.9292 55.8987 50.23 56.762 50.23Z" fill="white"/>
<path d="M67.969 33.406H72.1917C73.0511 33.406 73.7503 34.2654 73.7503 34.9646V63.0816C73.7503 63.941 73.055 64.6402 72.1917 64.6402H67.969C67.1096 64.6402 66.4104 63.7808 66.4104 63.0816V34.9646C66.4104 34.1052 67.1057 33.406 67.969 33.406Z" fill="white"/>
<path d="M79.18 42.207H83.4027C84.2621 42.207 84.9613 43.0664 84.9613 43.7656V63.0816C84.9613 63.941 84.266 64.6402 83.4027 64.6402H79.18C78.3206 64.6402 77.6214 63.7808 77.6214 63.0816V43.7656C77.6214 42.9062 78.3167 42.207 79.18 42.207Z" fill="white"/>
<path d="M27.844 64.25C28.9612 64.5078 30.0784 64.6367 31.1838 64.6367C34.7307 64.6367 38.1369 63.3281 40.7815 60.8984C43.7346 58.1796 45.3753 54.4062 45.3596 50.4254C45.3557 49.6247 44.6565 48.9996 43.8596 48.9996H32.6756V37.8156C32.6756 37.0188 32.0506 36.3195 31.2537 36.3156C27.2732 36.3 23.4998 37.9406 20.7807 40.8937C17.226 44.757 16.0698 50.2609 17.9018 55.4447C19.4565 59.8353 23.3002 63.1986 27.8432 64.2455L27.844 64.25Z" fill="white"/>
<path d="M37.262 45.938H49.875C50.6758 45.938 51.3789 45.3091 51.3789 44.5083C51.3867 40.7466 49.9023 37.1255 47.2266 34.4493C44.586 31.8087 41.0235 30.3282 37.3125 30.297C36.457 30.2892 35.7422 30.9454 35.7422 31.8009V44.4139C35.7422 45.2498 36.4258 45.9334 37.2617 45.9334L37.262 45.938Z" fill="white"/>
<path d="M18.152 67.664H83.851C84.4643 67.664 84.9604 68.2773 84.9604 68.7734V70.8789C84.9604 71.4922 84.4643 71.9883 83.851 71.9883H18.152C17.5387 71.9883 17.0426 71.375 17.0426 70.8789V68.7734C17.0426 68.1601 17.5387 67.664 18.152 67.664Z" fill="white"/>
</svg>
