<svg width="44" height="44" viewBox="0 0 44 44" fill="none" xmlns="http://www.w3.org/2000/svg">
<path d="M22 13.7949V22L27.1282 27.1282" stroke="white" stroke-width="4" stroke-linecap="round" stroke-linejoin="round"/>
<path d="M6.28277 11.4782L4.74433 11.4859C4.74855 12.3295 5.43141 13.0124 6.27504 13.0166L6.28277 11.4782ZM11.4967 13.0429C12.3463 13.0471 13.0386 12.3618 13.0429 11.5121C13.0471 10.6625 12.3618 9.97024 11.5121 9.96597L11.4967 13.0429ZM7.79497 6.2488C7.79069 5.39914 7.09846 4.7138 6.2488 4.71807C5.39914 4.72236 4.71381 5.41461 4.71809 6.26425L7.79497 6.2488ZM5.07692 22C5.07692 21.1504 4.38812 20.4615 3.53846 20.4615C2.6888 20.4615 2 21.1504 2 22H5.07692ZM32.001 39.3235C32.7366 38.8981 32.9879 37.9569 32.5625 37.2213C32.137 36.486 31.1959 36.2345 30.4605 36.6601L32.001 39.3235ZM36.6601 30.4605C36.2345 31.1959 36.486 32.137 37.2213 32.5625C37.9569 32.9879 38.8981 32.7366 39.3235 32.001L36.6601 30.4605ZM7.92888 7.7872C7.32509 8.38501 7.32023 9.3591 7.91805 9.96289C8.51586 10.5667 9.48993 10.5715 10.0937 9.97372L7.92888 7.7872ZM36.0765 7.92382C28.2402 0.0875072 15.5771 0.00816453 7.79262 7.79262L9.96833 9.96833C16.5306 3.40605 27.2455 3.44419 33.9009 10.0995L36.0765 7.92382ZM7.79262 7.79262L5.19491 10.3903L7.37063 12.566L9.96833 9.96833L7.79262 7.79262ZM6.27504 13.0166L11.4967 13.0429L11.5121 9.96597L6.2905 9.93973L6.27504 13.0166ZM7.82121 11.4704L7.79497 6.2488L4.71809 6.26425L4.74433 11.4859L7.82121 11.4704ZM22 5.07692C31.3463 5.07692 38.9231 12.6536 38.9231 22H42C42 10.9543 33.0457 2 22 2V5.07692ZM22 38.9231C12.6536 38.9231 5.07692 31.3463 5.07692 22H2C2 33.0457 10.9543 42 22 42V38.9231ZM30.4605 36.6601C27.9729 38.0991 25.0849 38.9231 22 38.9231V42C25.6404 42 29.0578 41.0261 32.001 39.3235L30.4605 36.6601ZM38.9231 22C38.9231 25.0849 38.0991 27.9729 36.6601 30.4605L39.3235 32.001C41.0261 29.0578 42 25.6404 42 22H38.9231ZM10.0937 9.97372C13.153 6.9448 17.3568 5.07692 22 5.07692V2C16.5137 2 11.5408 4.2111 7.92888 7.7872L10.0937 9.97372Z" fill="white"/>
<path d="M8.88047 8.88047L7.79262 7.79262M7.79262 7.79262C15.5771 0.00816451 28.2402 0.0875073 36.0765 7.92382L33.9009 10.0995C27.2455 3.44419 16.5306 3.40605 9.96833 9.96833M7.79262 7.79262L9.96833 9.96833M7.79262 7.79262L5.19491 10.3903L7.37063 12.566L9.96833 9.96833M4.74433 11.4859L6.28277 11.4782L6.27504 13.0166M4.74433 11.4859C4.74855 12.3295 5.43141 13.0124 6.27504 13.0166M4.74433 11.4859L4.71809 6.26425M4.74433 11.4859L7.82121 11.4704L7.79497 6.2488M6.27504 13.0166L11.4967 13.0429M6.27504 13.0166L6.2905 9.93973L11.5121 9.96597M11.4967 13.0429C12.3463 13.0471 13.0386 12.3618 13.0429 11.5121C13.0471 10.6625 12.3618 9.97024 11.5121 9.96597M11.4967 13.0429L11.5121 9.96597M7.79497 6.2488C7.79069 5.39914 7.09846 4.71381 6.2488 4.71807C5.39914 4.72236 4.71381 5.41461 4.71809 6.26425M7.79497 6.2488L4.71809 6.26425M5.07692 22C5.07692 21.1504 4.38812 20.4615 3.53846 20.4615C2.6888 20.4615 2 21.1504 2 22M5.07692 22H2M5.07692 22C5.07692 31.3463 12.6536 38.9231 22 38.9231M2 22C2 33.0457 10.9543 42 22 42M32.001 39.3235C32.7366 38.8981 32.9879 37.9569 32.5625 37.2213C32.137 36.486 31.1959 36.2345 30.4605 36.6601M32.001 39.3235L30.4605 36.6601M32.001 39.3235C29.0578 41.0261 25.6404 42 22 42M30.4605 36.6601C27.9729 38.0991 25.0849 38.9231 22 38.9231M36.6601 30.4605C36.2345 31.1959 36.486 32.137 37.2213 32.5625C37.9569 32.9879 38.8981 32.7366 39.3235 32.001M36.6601 30.4605L39.3235 32.001M36.6601 30.4605C38.0991 27.9729 38.9231 25.0849 38.9231 22M39.3235 32.001C41.0261 29.0578 42 25.6404 42 22M7.92888 7.7872C7.32509 8.38501 7.32023 9.3591 7.91805 9.96289C8.51586 10.5667 9.48993 10.5715 10.0937 9.97372M7.92888 7.7872L10.0937 9.97372M7.92888 7.7872C11.5408 4.2111 16.5137 2 22 2M10.0937 9.97372C13.153 6.9448 17.3568 5.07692 22 5.07692M22 5.07692C31.3463 5.07692 38.9231 12.6536 38.9231 22M22 5.07692V2M38.9231 22H42M42 22C42 10.9543 33.0457 2 22 2M22 38.9231V42" stroke="white" stroke-width="2.66667"/>
</svg>
