<svg width="454" height="81" viewBox="0 0 454 81" fill="none" xmlns="http://www.w3.org/2000/svg">
<path d="M13.4998 63.5C3.0002 53.5 3.00031 36.9999 17 23.4999L13.4998 63.5Z" fill="#7ECB2A"/>
<path d="M13.5 63.5L17.0002 23.4999C26.5005 36 28.0005 53.5 13.5 63.5Z" fill="#7ECB2A"/>
<path d="M13.4998 63.5C3.0002 53.5 3.00031 36.9999 17 23.4999L13.4998 63.5Z" fill="#7ECB2A"/>
<path d="M13.5 63.5L17.0002 23.4999C26.5005 36 28.0005 53.5 13.5 63.5Z" fill="#7ECB2A"/>
<path d="M13.4998 63.5C3.0002 53.5 3.00031 36.9999 17 23.4999M13.4998 63.5L17 23.4999M13.4998 63.5C28.0003 53.5 26.5003 36 17 23.4999" stroke="#7ECB2A" stroke-width="1.2"/>
<path d="M35.3611 45.1768C24.8615 35.1768 24.8616 18.6768 38.8613 5.17676L35.3611 45.1768Z" fill="#7ECB2A"/>
<path d="M35.3613 45.1768L38.8615 5.17676C48.3618 17.6768 49.8618 35.1768 35.3613 45.1768Z" fill="#7ECB2A"/>
<path d="M35.3611 45.1768C24.8615 35.1768 24.8616 18.6768 38.8613 5.17676L35.3611 45.1768Z" fill="#7ECB2A"/>
<path d="M35.3613 45.1768L38.8615 5.17676C48.3618 17.6768 49.8618 35.1768 35.3613 45.1768Z" fill="#7ECB2A"/>
<path d="M35.3611 45.1768C24.8615 35.1768 24.8616 18.6768 38.8613 5.17676M35.3611 45.1768L38.8613 5.17676M35.3611 45.1768C49.8616 35.1768 48.3616 17.6768 38.8613 5.17676" stroke="#7ECB2A" stroke-width="1.2"/>
<path d="M38.5 48.9999C48.5236 38.5228 65.0315 38.4699 78.5 52.5L38.5 48.9999Z" fill="#7ECB2A"/>
<path d="M38.5 48.9999L78.5 52.5C65.9786 61.9721 48.4674 63.5229 38.5 48.9999Z" fill="#7ECB2A"/>
<path d="M38.5 48.9999C48.5236 38.5228 65.0315 38.4699 78.5 52.5L38.5 48.9999Z" fill="#7ECB2A"/>
<path d="M38.5 48.9999L78.5 52.5C65.9786 61.9721 48.4674 63.5229 38.5 48.9999Z" fill="#7ECB2A"/>
<path d="M38.5 48.9999C48.5236 38.5228 65.0315 38.4699 78.5 52.5M38.5 48.9999L78.5 52.5M38.5 48.9999C48.4674 63.5229 65.9786 61.9721 78.5 52.5" stroke="#7ECB2A" stroke-width="1.2"/>
<path d="M52.9993 33.5C52.9317 19.0004 64.5651 6.76357 83.9996 7.49998L52.9993 33.5Z" fill="#7ECB2A"/>
<path d="M53 33.5L84.0003 7.5C81.573 23.0118 70.2584 37.0231 53 33.5Z" fill="#7ECB2A"/>
<path d="M52.9993 33.5C52.9317 19.0004 64.5651 6.76357 83.9996 7.49998L52.9993 33.5Z" fill="#7ECB2A"/>
<path d="M53 33.5L84.0003 7.5C81.573 23.0118 70.2584 37.0231 53 33.5Z" fill="#7ECB2A"/>
<path d="M52.9993 33.5C52.9317 19.0004 64.5651 6.76357 83.9996 7.49998M52.9993 33.5L83.9996 7.49998M52.9993 33.5C70.2577 37.0231 81.5724 23.0118 83.9996 7.49998" stroke="#7ECB2A" stroke-width="1.2"/>
<path d="M16.5 67.5C26.4999 57 43.7785 56.737 57.0001 71L16.5 67.5Z" fill="#7ECB2A"/>
<path d="M16.5 67.5L57.0001 71C44.9999 80.5 26.2124 82.1947 16.5 67.5Z" fill="#7ECB2A"/>
<path d="M16.5 67.5C26.4999 57 43.7785 56.737 57.0001 71M16.5 67.5L57.0001 71M16.5 67.5C26.2124 82.1947 44.9999 80.5 57.0001 71" stroke="#7ECB2A" stroke-width="1.2"/>
<path d="M14.2664 68.5479C15.1213 67.8485 15.2473 66.5884 14.5478 65.7335C13.8484 64.8786 12.5883 64.7526 11.7334 65.4521L14.2664 68.5479ZM3.26635 77.5479L14.2664 68.5479L11.7334 65.4521L0.733398 74.4521L3.26635 77.5479Z" fill="#7ECB2A"/>
<path d="M111.462 57.684C111.462 59.448 111.028 60.988 110.16 62.304C109.292 63.62 108.032 64.642 106.38 65.37C104.756 66.07 102.768 66.42 100.416 66.42C99.3796 66.42 98.3576 66.35 97.3496 66.21C96.3696 66.07 95.4176 65.874 94.4936 65.622C93.5976 65.342 92.7436 65.006 91.9316 64.614V58.692C93.3596 59.308 94.8296 59.882 96.3416 60.414C97.8816 60.918 99.4076 61.17 100.92 61.17C101.956 61.17 102.782 61.03 103.398 60.75C104.042 60.47 104.504 60.092 104.784 59.616C105.092 59.14 105.246 58.594 105.246 57.978C105.246 57.222 104.98 56.578 104.448 56.046C103.944 55.514 103.258 55.024 102.39 54.576C101.522 54.1 100.528 53.596 99.4076 53.064C98.7076 52.728 97.9516 52.336 97.1396 51.888C96.3276 51.412 95.5436 50.838 94.7876 50.166C94.0596 49.466 93.4576 48.626 92.9816 47.646C92.5056 46.666 92.2676 45.49 92.2676 44.118C92.2676 42.326 92.6736 40.8 93.4856 39.54C94.3256 38.252 95.5016 37.272 97.0136 36.6C98.5536 35.928 100.36 35.592 102.432 35.592C104 35.592 105.484 35.774 106.884 36.138C108.312 36.502 109.796 37.02 111.336 37.692L109.278 42.648C107.906 42.088 106.674 41.654 105.582 41.346C104.49 41.038 103.37 40.884 102.222 40.884C101.438 40.884 100.766 41.01 100.206 41.262C99.6456 41.514 99.2116 41.864 98.9036 42.312C98.6236 42.76 98.4836 43.292 98.4836 43.908C98.4836 44.608 98.6936 45.21 99.1136 45.714C99.5336 46.19 100.164 46.652 101.004 47.1C101.844 47.548 102.894 48.08 104.154 48.696C105.694 49.424 106.996 50.18 108.06 50.964C109.152 51.748 109.992 52.672 110.58 53.736C111.168 54.8 111.462 56.116 111.462 57.684ZM150.555 66H133.293V36.012H150.555V41.22H139.635V47.814H149.799V53.022H139.635V60.75H150.555V66ZM190.437 66H173.175V36.012H190.437V41.22H179.517V47.814H189.681V53.022H179.517V60.75H190.437V66ZM237.921 50.712C237.921 54.072 237.277 56.886 235.989 59.154C234.701 61.422 232.825 63.13 230.361 64.278C227.925 65.426 224.985 66 221.541 66H213.057V36.012H222.465C225.601 36.012 228.317 36.572 230.613 37.692C232.937 38.812 234.729 40.464 235.989 42.648C237.277 44.804 237.921 47.492 237.921 50.712ZM231.327 50.88C231.327 48.668 231.005 46.848 230.361 45.42C229.717 43.992 228.751 42.942 227.463 42.27C226.203 41.57 224.649 41.22 222.801 41.22H219.399V60.75H222.129C225.237 60.75 227.547 59.924 229.059 58.272C230.571 56.62 231.327 54.156 231.327 50.88ZM270.805 66H264.463V41.304H256.315V36.012H278.953V41.304H270.805V66ZM317.219 66H299.957V36.012H317.219V41.22H306.299V47.814H316.463V53.022H306.299V60.75H317.219V66ZM352.565 40.884C351.361 40.884 350.283 41.122 349.331 41.598C348.407 42.074 347.623 42.76 346.979 43.656C346.335 44.524 345.845 45.588 345.509 46.848C345.201 48.108 345.047 49.522 345.047 51.09C345.047 53.218 345.299 55.038 345.803 56.55C346.335 58.034 347.161 59.168 348.281 59.952C349.401 60.736 350.829 61.128 352.565 61.128C353.797 61.128 355.015 60.988 356.219 60.708C357.451 60.428 358.781 60.036 360.209 59.532V64.866C358.893 65.398 357.591 65.79 356.303 66.042C355.015 66.294 353.573 66.42 351.977 66.42C348.897 66.42 346.349 65.79 344.333 64.53C342.345 63.242 340.875 61.45 339.923 59.154C338.971 56.83 338.495 54.128 338.495 51.048C338.495 48.78 338.803 46.708 339.419 44.832C340.035 42.928 340.931 41.29 342.107 39.918C343.311 38.546 344.781 37.482 346.517 36.726C348.281 35.97 350.297 35.592 352.565 35.592C354.049 35.592 355.533 35.788 357.017 36.18C358.529 36.544 359.971 37.048 361.343 37.692L359.285 42.858C358.165 42.326 357.031 41.864 355.883 41.472C354.763 41.08 353.657 40.884 352.565 40.884ZM407.531 66H401.189V53.064H389.303V66H382.961V36.012H389.303V47.772H401.189V36.012H407.531V66Z" fill="white"/>
</svg>
