<svg width="78" height="54" viewBox="0 0 78 54" fill="none" xmlns="http://www.w3.org/2000/svg">
<path d="M61.7808 15.123H2.21925C0.9955 15.123 0 16.1341 0 17.377V31.3367C0 32.5796 0.9955 33.5907 2.21925 33.5907H2.79L6.8725 39.8102V41.8066C6.8725 43.6908 8.38188 45.2238 10.2371 45.2238H10.993C14.5131 48.0605 22.6644 49.877 32 49.877C41.3356 49.877 49.4869 48.0604 53.007 45.2238H53.7629C55.6181 45.2238 57.1275 43.6908 57.1275 41.8066V39.8102L61.21 33.5907H61.7808C63.0045 33.5907 64 32.5796 64 31.3367V17.377C64 16.1341 63.0045 15.123 61.7808 15.123ZM5.37113 33.5907H10.3088V38.3894H8.521L5.37113 33.5907ZM54.9799 41.8066C54.9799 42.4882 54.434 43.0426 53.7629 43.0426H42.3091C41.7161 43.0426 41.2352 43.5308 41.2352 44.1332C41.2352 44.7356 41.716 45.2239 42.3091 45.2239H48.4874C44.5462 46.7393 38.4528 47.6958 32 47.6958C25.5472 47.6958 19.4537 46.7395 15.5126 45.2238H37.7269C38.3199 45.2238 38.8008 44.7355 38.8008 44.1331C38.8008 43.5307 38.32 43.0425 37.7269 43.0425H10.2371C9.566 43.0425 9.02013 42.488 9.02013 41.8064V40.5704H54.9799V41.8066ZM12.4564 38.3892V33.5905H14.8904V38.3892H12.4564ZM17.038 38.3892V33.5905H19.472V38.3892H17.038ZM21.6197 38.3892V33.5905H24.0537V38.3892H21.6197ZM26.2014 38.3892V33.5905H28.6354V38.3892H26.2014ZM30.783 38.3892V33.5905H33.217V38.3892H30.783ZM35.3646 38.3892V33.5905H37.7986V38.3892H35.3646ZM39.9463 38.3892V33.5905H42.3802V38.3892H39.9463ZM44.528 38.3892V33.5905H46.962V38.3892H44.528ZM49.1096 38.3892V33.5905H51.5436V38.3892H49.1096ZM55.479 38.3892H53.6912V33.5905H58.6289L55.479 38.3892ZM61.8524 31.3367C61.8524 31.3769 61.8203 31.4095 61.7808 31.4095H2.21925C2.17975 31.4095 2.14762 31.3769 2.14762 31.3367V17.377C2.14762 17.3369 2.17975 17.3042 2.21925 17.3042H61.7808C61.8203 17.3042 61.8524 17.3369 61.8524 17.377V31.3367Z" fill="black"/>
<path d="M36.4444 23.5747C36.3437 22.9813 35.7885 22.5829 35.2037 22.6852C34.6192 22.7876 34.2272 23.3516 34.328 23.9454C34.3509 24.0801 34.3625 24.2185 34.3625 24.357C34.3625 25.6799 33.3027 26.7562 32.0001 26.7562C30.6975 26.7562 29.6377 25.6799 29.6377 24.357C29.6377 23.034 30.6975 21.9577 32.0001 21.9577C32.1172 21.9577 32.2347 21.9664 32.3495 21.9836C32.9362 22.0715 33.482 21.6598 33.5686 21.0639C33.6552 20.468 33.2499 19.9137 32.6631 19.8257C32.4449 19.793 32.2217 19.7765 31.9999 19.7765C29.513 19.7765 27.4897 21.8314 27.4897 24.3571C27.4897 26.8828 29.513 28.9377 31.9999 28.9377C34.4867 28.9377 36.51 26.8828 36.51 24.3571C36.5099 24.0944 36.4879 23.8314 36.4444 23.5747Z" fill="black"/>
<mask id="mask0_113_26" style="mask-type:luminance" maskUnits="userSpaceOnUse" x="48" y="20" width="30" height="30">
<path d="M48 50H78V20H48V50Z" fill="white"/>
</mask>
<g mask="url(#mask0_113_26)">
<path fill-rule="evenodd" clip-rule="evenodd" d="M56.8734 34.175L62.1759 28.8687C62.4009 28.6437 62.7084 28.5781 63 28.6343C63.2916 28.5781 63.5991 28.6437 63.8241 28.8687L69.1266 34.175C69.4931 34.5406 69.4931 35.1313 69.1266 35.5063C68.7609 35.8719 68.1675 35.8719 67.8009 35.5063L63.9375 31.6344V41.5625C63.9375 42.0781 63.5175 42.5 63 42.5C62.4816 42.5 62.0625 42.0781 62.0625 41.5625V31.6344L58.1991 35.5063C57.8325 35.8719 57.2381 35.8719 56.8734 35.5063C56.5069 35.1313 56.5069 34.5406 56.8734 34.175ZM63 50C71.2847 50 78 43.2875 78 35C78 26.7125 71.2847 20 63 20C54.7153 20 48 26.7125 48 35C48 43.2875 54.7153 50 63 50Z" fill="#FF0000"/>
<path d="M56.8735 34.175L62.176 28.8687C62.401 28.6437 62.7085 28.5781 63.0001 28.6343C63.2917 28.5781 63.5992 28.6437 63.8242 28.8687L69.1267 34.175C69.4932 34.5406 69.4932 35.1313 69.1267 35.5063C68.761 35.8719 68.1676 35.8719 67.801 35.5063L63.9376 31.6344V41.5625C63.9376 42.0781 63.5176 42.5 63.0001 42.5C62.4817 42.5 62.0626 42.0781 62.0626 41.5625V31.6344L58.1992 35.5063C57.8326 35.8719 57.2382 35.8719 56.8735 35.5063C56.507 35.1313 56.507 34.5406 56.8735 34.175Z" fill="white"/>
</g>
</svg>
