<svg width="69" height="57" viewBox="0 0 69 57" fill="none" xmlns="http://www.w3.org/2000/svg">
<g clip-path="url(#clip0_348_1521)">
<path d="M66.642 15.5884H3.35795C2.05772 15.5884 1 16.6305 1 17.9117V32.301C1 33.5821 2.05772 34.6242 3.35795 34.6242H3.96438L8.30203 41.0352V43.0929C8.30203 45.0351 9.90574 46.6153 11.8769 46.6153H12.6801C16.4202 49.5393 25.0809 51.4117 35 51.4117C44.9191 51.4117 53.5798 49.5392 57.3199 46.6153H58.1231C60.0943 46.6153 61.698 45.0351 61.698 43.0929V41.0352L66.0356 34.6242H66.642C67.9423 34.6242 69 33.5821 69 32.301V17.9117C69 16.6305 67.9423 15.5884 66.642 15.5884ZM6.70682 34.6242H11.953V39.5706H10.0536L6.70682 34.6242ZM59.4161 43.0929C59.4161 43.7955 58.8361 44.367 58.1231 44.367H45.9534C45.3234 44.367 44.8125 44.8703 44.8125 45.4912C44.8125 46.1121 45.3232 46.6154 45.9534 46.6154H52.5178C48.3304 48.1775 41.856 49.1634 35 49.1634C28.144 49.1634 21.6696 48.1776 17.4822 46.6153H41.0848C41.7149 46.6153 42.2258 46.112 42.2258 45.4911C42.2258 44.8701 41.715 44.3668 41.0848 44.3668H11.8769C11.1639 44.3668 10.5839 43.7954 10.5839 43.0928V41.8188H59.4161V43.0929ZM14.2349 39.5705V34.6241H16.821V39.5705H14.2349ZM19.1029 39.5705V34.6241H21.689V39.5705H19.1029ZM23.971 39.5705V34.6241H26.5571V39.5705H23.971ZM28.839 39.5705V34.6241H31.4251V39.5705H28.839ZM33.7069 39.5705V34.6241H36.2931V39.5705H33.7069ZM38.5749 39.5705V34.6241H41.161V39.5705H38.5749ZM43.4429 39.5705V34.6241H46.029V39.5705H43.4429ZM48.311 39.5705V34.6241H50.8971V39.5705H48.311ZM53.179 39.5705V34.6241H55.7651V39.5705H53.179ZM59.9464 39.5705H58.047V34.6241H63.2932L59.9464 39.5705ZM66.7181 32.301C66.7181 32.3423 66.684 32.3759 66.642 32.3759H3.35795C3.31598 32.3759 3.28185 32.3423 3.28185 32.301V17.9117C3.28185 17.8703 3.31598 17.8367 3.35795 17.8367H66.642C66.684 17.8367 66.7181 17.8703 66.7181 17.9117V32.301Z" fill="white"/>
<path d="M39.7223 24.3001C39.6154 23.6884 39.0254 23.2778 38.4041 23.3833C37.7831 23.4887 37.3666 24.0701 37.4736 24.6822C37.498 24.821 37.5103 24.9636 37.5103 25.1064C37.5103 26.4701 36.3843 27.5795 35.0003 27.5795C33.6162 27.5795 32.4903 26.4701 32.4903 25.1064C32.4903 23.7427 33.6162 22.6333 35.0003 22.6333C35.1247 22.6333 35.2496 22.6423 35.3715 22.66C35.9949 22.7507 36.5748 22.3263 36.6668 21.7121C36.7589 21.0978 36.3281 20.5265 35.7047 20.4358C35.4728 20.402 35.2358 20.385 35 20.385C32.3577 20.385 30.208 22.5031 30.208 25.1065C30.208 27.71 32.3577 29.8281 35 29.8281C37.6423 29.8281 39.792 27.71 39.792 25.1065C39.7919 24.8358 39.7685 24.5647 39.7223 24.3001Z" fill="white"/>
</g>
<defs>
<clipPath id="clip0_348_1521">
<rect width="69" height="57" fill="white"/>
</clipPath>
</defs>
</svg>
