<svg width="68" height="37" viewBox="0 0 68 37" fill="none" xmlns="http://www.w3.org/2000/svg">
<g clip-path="url(#clip0_348_1521)">
<path d="M65.642 0.588379H2.35795C1.05772 0.588379 0 1.63054 0 2.91166V17.301C0 18.5821 1.05772 19.6242 2.35795 19.6242H2.96438L7.30203 26.0352V28.0929C7.30203 30.0351 8.90574 31.6153 10.8769 31.6153H11.6801C15.4202 34.5393 24.0809 36.4117 34 36.4117C43.9191 36.4117 52.5798 34.5392 56.3199 31.6153H57.1231C59.0943 31.6153 60.698 30.0351 60.698 28.0929V26.0352L65.0356 19.6242H65.642C66.9423 19.6242 68 18.5821 68 17.301V2.91166C68 1.63054 66.9423 0.588379 65.642 0.588379ZM5.70682 19.6242H10.953V24.5706H9.05356L5.70682 19.6242ZM58.4161 28.0929C58.4161 28.7955 57.8361 29.367 57.1231 29.367H44.9534C44.3234 29.367 43.8125 29.8703 43.8125 30.4912C43.8125 31.1121 44.3232 31.6154 44.9534 31.6154H51.5178C47.3304 33.1775 40.856 34.1634 34 34.1634C27.144 34.1634 20.6696 33.1776 16.4822 31.6153H40.0848C40.7149 31.6153 41.2258 31.112 41.2258 30.4911C41.2258 29.8701 40.715 29.3668 40.0848 29.3668H10.8769C10.1639 29.3668 9.58388 28.7954 9.58388 28.0928V26.8188H58.4161V28.0929ZM13.2349 24.5705V19.6241H15.821V24.5705H13.2349ZM18.1029 24.5705V19.6241H20.689V24.5705H18.1029ZM22.971 24.5705V19.6241H25.5571V24.5705H22.971ZM27.839 24.5705V19.6241H30.4251V24.5705H27.839ZM32.7069 24.5705V19.6241H35.2931V24.5705H32.7069ZM37.5749 24.5705V19.6241H40.161V24.5705H37.5749ZM42.4429 24.5705V19.6241H45.029V24.5705H42.4429ZM47.311 24.5705V19.6241H49.8971V24.5705H47.311ZM52.179 24.5705V19.6241H54.7651V24.5705H52.179ZM58.9464 24.5705H57.047V19.6241H62.2932L58.9464 24.5705ZM65.7181 17.301C65.7181 17.3423 65.684 17.3759 65.642 17.3759H2.35795C2.31598 17.3759 2.28185 17.3423 2.28185 17.301V2.91166C2.28185 2.8703 2.31598 2.83667 2.35795 2.83667H65.642C65.684 2.83667 65.7181 2.8703 65.7181 2.91166V17.301Z" fill="black"/>
<path d="M38.7223 9.30006C38.6154 8.68842 38.0254 8.27779 37.4041 8.38326C36.7831 8.48873 36.3666 9.07014 36.4736 9.68217C36.498 9.82101 36.5103 9.96365 36.5103 10.1064C36.5103 11.4701 35.3843 12.5795 34.0003 12.5795C32.6162 12.5795 31.4903 11.4701 31.4903 10.1064C31.4903 8.74273 32.6162 7.6333 34.0003 7.6333C34.1247 7.6333 34.2496 7.64233 34.3715 7.66C34.9949 7.75068 35.5748 7.32631 35.6668 6.71206C35.7589 6.0978 35.3281 5.52647 34.7047 5.43578C34.4728 5.40202 34.2358 5.38501 34 5.38501C31.3577 5.38501 29.208 7.5031 29.208 10.1065C29.208 12.71 31.3577 14.8281 34 14.8281C36.6423 14.8281 38.792 12.71 38.792 10.1065C38.7919 9.8358 38.7685 9.56466 38.7223 9.30006Z" fill="black"/>
</g>
<defs>
<clipPath id="clip0_348_1521">
<rect width="68" height="37" fill="white"/>
</clipPath>
</defs>
</svg>
