<svg width="236" height="235" viewBox="0 0 236 235" fill="none" xmlns="http://www.w3.org/2000/svg">
<path d="M191.8 122.3C187.7 121.3 183.3 120.8 178.9 120.8C177.6 120.8 176.4 120.8 175.2 120.9C146.9 122.7 124.2 145.1 121.9 173.3C121.8 174.8 121.7 176.4 121.7 177.9C121.7 182.7 122.3 187.3 123.4 191.7C129.6 216.6 152.1 235 178.9 235C210.5 235 236 209.4 236 177.9C236 150.8 217.1 128.1 191.8 122.3ZM178.9 215.7C158 215.7 141.1 198.8 141.1 177.9C141.1 157 158 140.1 178.9 140.1C199.8 140.1 216.7 157 216.7 177.9C216.6 198.8 199.7 215.7 178.9 215.7Z" fill="white"/>
<path d="M173.3 207.4C192.7 207.4 208.3 191.7 208.3 172.4H173.3V207.4Z" fill="white"/>
<path d="M47.9 44.3C51.5 44.3 54.4 41.4 54.4 37.8V22.1V7.40002C54.4 3.80002 51.5 0.900024 47.9 0.900024H42.4C38.8 0.900024 35.9 3.80002 35.9 7.40002V22.2V37.9C35.9 41.5 38.8 44.4 42.4 44.4L47.9 44.3Z" fill="white"/>
<path d="M149.4 44.3C153 44.3 155.9 41.4 155.9 37.8V22.1V7.40002C155.9 3.80002 153 0.900024 149.4 0.900024H143.9C140.3 0.900024 137.4 3.80002 137.4 7.40002V22.2V37.9C137.4 41.5 140.3 44.4 143.9 44.4L149.4 44.3Z" fill="white"/>
<path d="M110.1 191.8C109.2 187.3 108.7 182.7 108.7 178C108.7 176.5 108.8 174.9 108.9 173.4H27.6C21.5 173.4 16.5 168.4 16.5 162.3V73.8H175.1V108C176.3 107.9 177.6 107.9 178.8 107.9C183.2 107.9 187.5 108.3 191.7 109.1V36.9C191.7 28.8 185.1 22.1 176.9 22.1H164.9V37.8C164.9 46.4 157.9 53.5 149.2 53.5H143.7C135.1 53.5 128 46.5 128 37.8V22.1H63.6V37.8C63.6 46.4 56.6 53.5 47.9 53.5H42.4C33.8 53.5 26.7 46.5 26.7 37.8V22.1H14.8C6.7 22.1 0 28.7 0 36.9V177C0 185.1 6.6 191.8 14.8 191.8H110.1Z" fill="white"/>
<path d="M37.4 101.4C37.4 103.317 37.7776 105.216 38.5114 106.987C39.2451 108.759 40.3205 110.368 41.6762 111.724C43.032 113.08 44.6415 114.155 46.4128 114.889C48.1842 115.622 50.0827 116 52 116C53.9173 116 55.8158 115.622 57.5872 114.889C59.3585 114.155 60.968 113.08 62.3238 111.724C63.6795 110.368 64.7549 108.759 65.4886 106.987C66.2224 105.216 66.6 103.317 66.6 101.4C66.6 99.4827 66.2224 97.5842 65.4886 95.8129C64.7549 94.0415 63.6795 92.432 62.3238 91.0763C60.968 89.7206 59.3585 88.6451 57.5872 87.9114C55.8158 87.1777 53.9173 86.8 52 86.8C50.0827 86.8 48.1842 87.1777 46.4128 87.9114C44.6415 88.6451 43.032 89.7206 41.6762 91.0763C40.3205 92.432 39.2451 94.0415 38.5114 95.8129C37.7776 97.5842 37.4 99.4827 37.4 101.4Z" fill="white"/>
<path d="M81.3 101.4C81.3 105.272 82.8382 108.986 85.5762 111.724C88.3143 114.462 92.0278 116 95.9 116C99.7722 116 103.486 114.462 106.224 111.724C108.962 108.986 110.5 105.272 110.5 101.4C110.5 97.5279 108.962 93.8143 106.224 91.0763C103.486 88.3383 99.7722 86.8 95.9 86.8C92.0278 86.8 88.3143 88.3383 85.5762 91.0763C82.8382 93.8143 81.3 97.5279 81.3 101.4Z" fill="white"/>
<path d="M125.2 101.4C125.2 105.272 126.738 108.986 129.476 111.724C132.214 114.462 135.928 116 139.8 116C143.672 116 147.386 114.462 150.124 111.724C152.862 108.986 154.4 105.272 154.4 101.4C154.4 97.5279 152.862 93.8143 150.124 91.0763C147.386 88.3383 143.672 86.8 139.8 86.8C135.928 86.8 132.214 88.3383 129.476 91.0763C126.738 93.8143 125.2 97.5279 125.2 101.4Z" fill="white"/>
<path d="M81.3 145.7C81.3 149.572 82.8382 153.286 85.5762 156.024C88.3143 158.762 92.0278 160.3 95.9 160.3C99.7722 160.3 103.486 158.762 106.224 156.024C108.962 153.286 110.5 149.572 110.5 145.7C110.5 141.828 108.962 138.114 106.224 135.376C103.486 132.638 99.7722 131.1 95.9 131.1C92.0278 131.1 88.3143 132.638 85.5762 135.376C82.8382 138.114 81.3 141.828 81.3 145.7Z" fill="white"/>
<path d="M37.4 145.7C37.4 147.617 37.7776 149.516 38.5114 151.287C39.2451 153.059 40.3205 154.668 41.6762 156.024C43.032 157.38 44.6415 158.455 46.4128 159.189C48.1842 159.922 50.0827 160.3 52 160.3C53.9173 160.3 55.8158 159.922 57.5872 159.189C59.3585 158.455 60.968 157.38 62.3238 156.024C63.6795 154.668 64.7549 153.059 65.4886 151.287C66.2224 149.516 66.6 147.617 66.6 145.7C66.6 143.783 66.2224 141.884 65.4886 140.113C64.7549 138.342 63.6795 136.732 62.3238 135.376C60.968 134.021 59.3585 132.945 57.5872 132.211C55.8158 131.478 53.9173 131.1 52 131.1C50.0827 131.1 48.1842 131.478 46.4128 132.211C44.6415 132.945 43.032 134.021 41.6762 135.376C40.3205 136.732 39.2451 138.342 38.5114 140.113C37.7776 141.884 37.4 143.783 37.4 145.7Z" fill="white"/>
</svg>
