<svg width="110" height="104" viewBox="0 0 110 104" fill="none" xmlns="http://www.w3.org/2000/svg">
<path d="M70.445 95.836C69.5583 97.9766 67.4841 99.3633 65.1677 99.3633H13.3947C11.0783 99.3633 9.0041 97.9766 8.1174 95.836C7.23068 93.6915 7.71896 91.2501 9.3557 89.6055L25.2577 73.7035C15.3241 68.5277 8.8867 58.1335 8.8867 46.7305C8.8867 29.9685 22.5197 16.3355 39.2817 16.3355C56.0437 16.3355 69.6767 29.9685 69.6767 46.7305C69.6767 58.1285 63.2392 68.5275 53.3057 73.7035L69.2077 89.6055C70.8444 91.2461 71.3317 93.6875 70.445 95.836Z" fill="white"/>
<path d="M101.98 77.34C101.168 79.297 99.2612 80.5744 97.1402 80.5744H68.4992L62.5109 74.5861C65.5421 72.0509 68.1515 69.0275 70.2336 65.6173C73.7141 59.9103 75.5578 53.3833 75.5578 46.7303C75.5578 31.6253 66.2766 18.6403 53.1128 13.1993C58.1948 7.79309 65.4058 4.41809 73.4018 4.41809C88.7728 4.41809 101.277 16.9261 101.277 32.3011C101.277 42.7541 95.3784 52.2891 86.2568 57.0351L100.847 71.6251C102.355 73.1329 102.8 75.3712 101.983 77.3439L101.98 77.34Z" fill="white"/>
</svg>
