<svg width="47" height="49" viewBox="0 0 47 49" fill="none" xmlns="http://www.w3.org/2000/svg">
<g clip-path="url(#clip0_30_483)">
<path d="M23.5 0C12.5143 0 3.57611 9.31813 3.57611 20.7717V39.413H21.9674V27.6956H17.3696C13.144 27.6956 9.70658 24.1119 9.70658 19.7065V13.3152C9.70658 12.4325 10.3931 11.7173 11.2392 11.7173H17.3697C19.8779 11.7173 22.1014 12.9856 23.5002 14.9331C24.899 12.9856 27.1225 11.7173 29.6306 11.7173H35.7611C36.6072 11.7173 37.2937 12.4325 37.2937 13.3152V19.7065C37.2937 24.1119 33.8563 27.6956 29.6307 27.6956H25.0329V39.413H43.4242V20.7717C43.4238 9.31813 34.4857 0 23.5 0ZM31.621 7.87417C31.1443 8.60955 30.188 8.79531 29.4927 8.3032C25.9415 5.80095 21.0563 5.802 17.5071 8.3032C16.8076 8.79579 15.8528 8.60543 15.3798 7.87464C14.9049 7.14338 15.0895 6.15036 15.7909 5.65577C18.0741 4.04652 20.7401 3.19562 23.5 3.19562C26.2599 3.19562 28.9259 4.04652 31.2089 5.65586C31.9103 6.14988 32.0949 7.14347 31.621 7.87417Z" fill="#1DD904" stroke="#1DD904" stroke-width="0.125"/>
<path d="M18.4531 18.5768L21.9674 22.2405V19.7065C21.9674 17.0633 19.9049 14.913 17.3696 14.913H12.7717V19.7065C12.7717 22.3497 14.8342 24.5 17.3696 24.5H19.8002L16.2859 20.8362C15.6873 20.2126 15.6873 19.2004 16.2859 18.5767C16.8847 17.9527 17.8545 17.9527 18.4531 18.5768Z" fill="#1DD904" stroke="#1DD904" stroke-width="0.125"/>
<path d="M29.6305 14.913C27.0951 14.913 25.0327 17.0633 25.0327 19.7065V22.2405L28.5469 18.5767C29.1455 17.9527 30.1154 17.9527 30.7141 18.5767C31.3128 19.2003 31.3128 20.2125 30.7141 20.8362L27.1998 24.5H29.6304C32.1657 24.5 34.2282 22.3497 34.2282 19.7065V14.913H29.6305Z" fill="#1DD904" stroke="#1DD904" stroke-width="0.125"/>
<path d="M42.4022 42.6087H4.59783C2.05836 42.6087 0 44.7548 0 47.4021C0 48.2846 0.686182 49 1.53264 49H45.4674C46.3138 49 47.0001 48.2846 47.0001 47.4021C47 44.7548 44.9416 42.6087 42.4022 42.6087Z" fill="#1DD904" stroke="#1DD904" stroke-width="0.125"/>
</g>
<defs>
<clipPath id="clip0_30_483">
<rect width="47" height="49" fill="white"/>
</clipPath>
</defs>
</svg>
