<svg width="49" height="51" viewBox="0 0 49 51" fill="none" xmlns="http://www.w3.org/2000/svg">
<path d="M24.4999 1C13.5143 1 4.57611 10.3181 4.57611 21.7717V40.413H22.9674V28.6956H18.3696C14.144 28.6956 10.7066 25.1119 10.7066 20.7065V14.3152C10.7066 13.4325 11.3931 12.7173 12.2392 12.7173H18.3697C20.8778 12.7173 23.1013 13.9856 24.5001 15.9331C25.8989 13.9856 28.1224 12.7173 30.6306 12.7173H36.761C37.6071 12.7173 38.2937 13.4325 38.2937 14.3152V20.7065C38.2937 25.1119 34.8563 28.6956 30.6307 28.6956H26.0329V40.413H44.4241V21.7717C44.4238 10.3181 35.4856 1 24.4999 1ZM32.6209 8.87417C32.1442 9.60955 31.188 9.79531 30.4926 9.3032C26.9415 6.80095 22.0563 6.802 18.5071 9.3032C17.8076 9.79579 16.8528 9.60543 16.3798 8.87464C15.9049 8.14338 16.0894 7.15036 16.7909 6.65577C19.074 5.04652 21.7401 4.19562 24.4999 4.19562C27.2599 4.19562 29.9259 5.04652 32.2088 6.65586C32.9103 7.14988 33.0949 8.14347 32.6209 8.87417Z" fill="#FF0000" stroke="#FF0000" stroke-width="0.125"/>
<path d="M19.4531 19.5768L22.9673 23.2406V20.7065C22.9673 18.0633 20.9048 15.913 18.3695 15.913H13.7717V20.7065C13.7717 23.3497 15.8342 25.5 18.3695 25.5H20.8001L17.2858 21.8362C16.6872 21.2126 16.6872 20.2004 17.2858 19.5767C17.8846 18.9527 18.8545 18.9527 19.4531 19.5768Z" fill="#FF0000" stroke="#FF0000" stroke-width="0.125"/>
<path d="M30.6304 15.913C28.0951 15.913 26.0326 18.0633 26.0326 20.7065V23.2406L29.5468 19.5767C30.1455 18.9527 31.1154 18.9527 31.7141 19.5767C32.3127 20.2003 32.3127 21.2125 31.7141 21.8362L28.1997 25.5H30.6303C33.1657 25.5 35.2281 23.3497 35.2281 20.7065V15.913H30.6304Z" fill="#FF0000" stroke="#FF0000" stroke-width="0.125"/>
<path d="M43.4021 43.6087H5.59782C3.05836 43.6087 1 45.7548 1 48.4021C1 49.2846 1.68618 50 2.53264 50H46.4674C47.3137 50 48 49.2846 48 48.4021C47.9999 45.7548 45.9416 43.6087 43.4021 43.6087Z" fill="#FF0000" stroke="#FF0000" stroke-width="0.125"/>
</svg>
